<?xml version="1.0" standalone="no"?>
<!DOCTYPE svg PUBLIC "-//W3C//DTD SVG 1.1//EN" "http://www.w3.org/Graphics/SVG/1.1/DTD/svg11.dtd" >
<svg xmlns="http://www.w3.org/2000/svg">
<metadata>Generated by IcoMoon</metadata>
<defs>
<font id="icomoon" horiz-adv-x="1024">
<font-face units-per-em="1024" ascent="960" descent="-64" />
<missing-glyph horiz-adv-x="1024" />
<glyph unicode="&#x20;" horiz-adv-x="512" d="" />
<glyph unicode="&#xe900;" glyph-name="e900" d="M542.31 383.181c76.186 44.851 127.386 127.693 127.386 222.515 0 142.541-115.507 258.048-258.048 258.048s-258.048-115.507-258.048-258.048c0-94.822 51.2-177.664 127.386-222.515-157.594-53.965-270.746-200.090-270.746-350.925h83.046c0 142.541 142.541 286.72 318.362 286.72s318.362-144.179 318.362-286.72h83.046c0 150.835-113.152 296.96-270.746 350.925zM411.648 433.664c-95.027 0-172.032 77.005-172.032 172.032s77.005 172.032 172.032 172.032c95.027 0 172.032-77.005 172.032-172.032s-77.005-172.032-172.032-172.032zM1013.76 32.256c0 0-5.734 275.251-172.032 372.736 0 0-22.426 4.403-13.414 13.312 32.768 32.358 102.298 123.494 42.086 273.408-34.509 86.016-149.094 126.157-200.704 114.688l28.672-86.016c0 0 114.688-2.56 114.688-143.36 0-86.016-51.61-137.626-143.36-172.032 0 0 263.782-51.61 258.048-372.736h86.016z" />
<glyph unicode="&#xe901;" glyph-name="e901" d="M822.579 949.76h-621.158c-26.419 0-47.821-21.402-47.821-47.821v-907.981c0-26.419 21.402-47.821 47.821-47.821h621.261c26.419 0 47.821 21.402 47.821 47.821v907.981c-0.102 26.419-21.504 47.821-47.923 47.821v0zM822.579 17.92c0-13.21-10.65-23.859-23.859-23.859h-573.44c-13.21 0-23.859 10.65-23.859 23.859v167.219h621.261v-167.219h-0.102zM822.579 232.96h-621.158v645.12c0 13.21 10.65 23.859 23.859 23.859h573.44c13.21 0 23.859-10.752 23.859-23.859v-645.12zM464.179 89.6c0 12.493 5.12 24.986 14.029 33.792 8.806 8.806 21.299 14.029 33.792 14.029s24.986-5.12 33.792-14.029c8.806-8.806 14.029-21.299 14.029-33.792zM686.797 569.344c0-18.739-16.896-33.997-37.786-33.997h-274.022c-20.89 0-37.786 15.258-37.786 33.997v0c0 18.739 16.896 33.997 37.786 33.997h273.92c20.992 0 37.888-15.155 37.888-33.997v0zM512 394.65c-18.842 0-33.997 16.896-33.997 37.786v273.92c0 20.89 15.258 37.786 33.997 37.786v0c18.842 0 33.997-16.896 33.997-37.786v-273.92c0-20.89-15.258-37.786-33.997-37.786z" />
<glyph unicode="&#xe902;" glyph-name="e902" d="M735.027 503.706l-446.054 446.054-55.706-55.706 445.952-446.054-445.952-445.952 55.706-55.808 501.76 501.76-55.706 55.706z" />
<glyph unicode="&#xe903;" glyph-name="e903" d="M288.973 503.706l446.054 446.054 55.706-55.706-445.952-446.054 446.054-445.952-55.808-55.808-501.76 501.76 55.706 55.706z" />
<glyph unicode="&#xe904;" glyph-name="e904" d="M701.030 665.293c-15.053 8.806-34.202 3.482-42.803-11.264l-200.602-347.443-112.23 103.424c-11.878 12.493-31.744 13.21-44.339 1.229-12.595-11.571-13.312-31.642-1.434-44.237l143.36-132.301c11.776-12.595 31.642-13.21 44.339-1.229 3.789 3.482 225.178 389.222 225.178 389.222 8.602 14.746 3.482 34.202-11.469 42.598v0zM512 8.909c-242.483 0-439.091 196.608-439.091 439.091 0 242.381 196.608 439.091 439.091 439.091s439.091-196.608 439.091-439.091c0-242.381-196.608-439.091-439.091-439.091v0zM512 949.76c-277.094 0-501.76-224.563-501.76-501.76s224.666-501.76 501.76-501.76 501.76 224.563 501.76 501.76c0 277.197-224.666 501.76-501.76 501.76v0z" />
<glyph unicode="&#xe905;" glyph-name="e905" d="M403.661 893.235c-217.293 0-393.421-175.821-393.421-392.704 0-204.186 152.474-373.658 352.051-392.704-0.512 0.614 0-105.062 0-105.062s235.622 143.462 305.459 206.643c79.462 71.885 129.331 175.616 129.331 291.123 0 216.883-176.128 392.704-393.421 392.704zM237.978 458.342c-22.835 0-41.37 18.534-41.37 41.37s18.534 41.37 41.37 41.37 41.37-18.534 41.37-41.37c0.102-22.835-18.432-41.37-41.37-41.37zM403.661 458.342c-22.835 0-41.37 18.534-41.37 41.37s18.534 41.37 41.37 41.37c22.835 0 41.37-18.534 41.37-41.37 0.102-22.835-18.534-41.37-41.37-41.37zM569.344 458.342c-22.835 0-41.37 18.534-41.37 41.37s18.534 41.37 41.37 41.37c22.835 0 41.37-18.534 41.37-41.37s-18.534-41.37-41.37-41.37zM899.277 119.194l-126.259 43.418c-10.854 3.686-16.589 15.565-12.902 26.317 3.686 10.854 15.565 16.589 26.317 12.902l73.83-25.395c0.614 20.275 1.331 50.278 1.331 84.89v9.523l7.27 6.246c15.77 13.517 30.208 28.672 42.906 45.158 12.698 16.589 23.654 34.611 32.563 53.453 9.011 19.149 15.974 39.424 20.685 60.109 4.813 21.299 7.27 43.213 7.27 65.229 0 34.509-5.939 68.198-17.51 100.352-11.264 31.027-27.546 59.802-48.538 85.402-20.787 25.498-45.466 47.104-73.421 64.41-28.467 17.613-59.392 30.106-91.955 37.171-11.162 2.458-18.33 13.414-15.872 24.678 2.458 11.162 13.517 18.33 24.678 15.872 37.171-8.090 72.499-22.323 104.96-42.394 31.846-19.661 60.006-44.442 83.661-73.421 23.962-29.286 42.598-62.157 55.398-97.485 13.312-36.659 20.070-75.162 20.070-114.483 0-25.088-2.765-50.176-8.294-74.445-5.325-23.654-13.312-46.694-23.654-68.608-10.138-21.504-22.63-41.984-37.171-60.928-12.493-16.282-26.419-31.334-41.574-45.056-0.205-60.314-2.355-104.653-2.355-105.165l-1.434-27.75z" />
<glyph unicode="&#xe906;" glyph-name="e906" d="M512 949.76c-277.094 0-501.76-224.666-501.76-501.76s224.666-501.76 501.76-501.76c277.094 0 501.76 224.666 501.76 501.862 0 276.992-224.666 501.658-501.76 501.658zM512 50.79c-219.341 0-397.21 177.766-397.21 397.21s177.766 397.21 397.21 397.21c219.341 0 397.312-177.766 397.312-397.21s-177.971-397.21-397.312-397.21z" />
<glyph unicode="&#xe907;" glyph-name="e907" d="M397.722 271.565c-8.602 0-16.179-3.174-22.426-9.626-6.349-6.451-10.342-14.848-11.878-25.19h64.102c-0.102 11.059-2.662 19.661-7.885 25.702s-12.493 9.114-21.914 9.114zM587.059 271.565c-8.602 0-16.179-3.174-22.426-9.626-6.349-6.451-10.342-14.848-11.878-25.19h64.102c-0.102 11.059-2.662 19.661-7.885 25.702s-12.493 9.114-21.914 9.114zM211.149 727.245h34.099v-110.285h-34.099v110.285zM276.685 299.418c-12.595 10.752-29.082 16.179-49.562 16.179h-26.010v-132.506h24.986c21.811 0 38.81 5.939 51.098 17.818s18.33 28.57 18.33 50.074c0 21.504-6.246 37.581-18.842 48.435zM318.669 727.859h34.406v-110.899h-34.406v110.899zM894.976 949.76h-765.952c-65.536 0-118.784-53.146-118.784-118.784v-765.952c0-65.536 53.146-118.784 118.784-118.784h765.952c65.536 0 118.784 53.146 118.784 118.784v765.952c0 65.638-53.146 118.784-118.784 118.784zM531.661 746.189h97.178v-24.166c-11.059-34.406-20.787-64.614-29.286-90.624 17.715-23.859 27.75-44.442 30.31-61.645 6.451-43.418-3.994-67.891-31.334-73.421-8.499-1.843-19.763-1.946-33.792-0.307-1.843 9.421-4.301 19.046-7.27 28.979 10.752-2.765 20.992-3.686 30.618-2.765 15.667 1.638 20.685 17.203 15.155 46.899-2.765 16.077-12.8 35.328-30.003 57.856 8.499 29.389 17.715 61.133 27.546 95.13h-43.725v-298.086h-25.498v322.15zM667.034 537.702l22.733-12.39c-16.282-30.106-33.792-57.549-52.326-82.33-5.939 4.608-13.21 9.83-21.709 15.872 18.842 22.016 35.942 48.333 51.302 78.848zM408.269 737.587h24.166v-230.502h-24.166v230.502zM161.178 444.723c18.33 28.672 27.546 67.584 27.546 116.429v33.792h-27.546v22.016h27.546v131.584h78.95v-131.584h28.57v132.301h79.258v-132.301h25.498v-22.016h-25.498v-131.584c0-21.606-9.421-32.358-28.262-32.358-8.294 0-18.022 0.307-29.286 1.024-0.717 8.090-2.048 15.974-4.096 23.757 9.421-1.638 18.227-2.56 26.522-2.765 8.499-0.205 12.8 5.018 12.8 15.872v126.054h-34.406v-35.533c0-57.242-10.547-102.093-31.744-134.758-6.451 8.294-12.186 14.746-17.203 19.251 17.715 26.829 26.522 65.331 26.522 115.405v35.533h-28.57v-121.958c0-22.528-9.523-33.792-28.57-33.792-7.578 0-16.077 0.307-25.498 1.024-0.922 8.090-2.253 15.974-4.096 23.757 10.342-1.638 18.227-2.458 23.757-2.458 7.987 0 12.083 4.915 12.083 14.848v118.682h-34.099v-39.629c0-53.043-10.957-96.358-32.768-129.946-6.554 8.294-12.288 14.746-17.408 19.354zM292.966 187.597c-17.306-16.077-39.526-24.064-66.765-24.064h-47.309v171.827h49.050c26.010 0 47.718-7.578 64.922-22.733 17.306-15.155 25.907-35.533 25.907-61.030 0.102-26.624-8.602-47.923-25.805-64zM449.229 219.341h-85.914c0.41-13.107 3.994-23.245 10.752-30.31 6.758-7.168 16.282-10.752 28.467-10.752 13.722 0 26.317 4.403 37.786 13.21v-19.456c-10.752-7.578-25.088-11.469-42.906-11.469-17.715 0-31.642 5.632-41.574 16.896s-14.95 26.829-14.95 46.797c0 18.739 5.427 34.304 16.384 46.49s24.474 18.33 40.653 18.33c16.077 0 28.57-5.12 37.581-15.462s13.517-24.781 13.517-43.315l0.205-10.957zM453.734 430.592c-13.107 0-28.365 0.205-45.875 0.717-0.922 9.421-2.56 18.944-4.813 28.57 16.589-1.638 29.696-2.56 39.629-2.765 12.39-0.205 18.637 5.939 18.637 18.637v287.642h25.19v-295.629c0-24.781-10.957-37.171-32.768-37.171zM499.814 163.533h-21.709v181.555h21.709v-181.555zM638.566 219.341h-85.914c0.41-13.107 3.994-23.245 10.752-30.31 6.758-7.168 16.282-10.752 28.467-10.752 13.722 0 26.317 4.403 37.786 13.21v-19.456c-10.752-7.578-25.088-11.469-42.906-11.469-17.715 0-31.642 5.632-41.574 16.896s-14.95 26.829-14.95 46.797c0 18.739 5.427 34.304 16.384 46.49s24.474 18.33 40.653 18.33c16.077 0 28.57-5.12 37.581-15.462s13.517-24.781 13.517-43.315l0.205-10.957zM726.426 268.186h-30.515v-66.97c0-8.090 1.331-13.824 4.096-17.306s7.27-5.222 13.619-5.222c4.915 0 9.114 1.331 12.8 4.096v-18.125c-4.71-2.56-11.162-3.891-19.149-3.891-22.016 0-32.973 12.186-32.973 36.454v70.861h-21.094v18.125h21.094v29.491l21.606 6.861v-36.352h30.515v-18.022zM850.227 219.341h-85.914c0.41-13.107 3.994-23.245 10.752-30.31 6.758-7.168 16.282-10.752 28.467-10.752 13.722 0 26.317 4.403 37.786 13.21v-19.456c-10.752-7.578-25.088-11.469-42.906-11.469-17.715 0-31.642 5.632-41.574 16.896s-14.95 26.829-14.95 46.797c0 18.739 5.427 34.304 16.384 46.49s24.474 18.33 40.653 18.33c16.077 0 28.57-5.12 37.581-15.462s13.517-24.781 13.517-43.315v-10.957h0.205zM833.843 449.126c-23.654 27.341-44.237 50.278-61.645 68.915l19.251 16.896c20.48-20.173 41.677-42.394 63.795-66.458l-21.402-19.354zM845.926 622.797c-46.387 27.341-82.432 61.030-108.237 100.966-19.968-29.901-43.008-55.91-68.915-78.234h141.312v-24.166h-58.88v-43.315h92.57v-24.166h-92.672v-85.402c0-26.419-12.39-39.629-37.171-39.629-9.626 0-22.528 0.102-38.605 0.307-1.126 8.090-2.765 17.613-4.813 28.57 12.39-1.843 24.269-2.765 35.533-2.765 12.595 0 18.944 6.451 18.944 19.251v79.565h-86.835v24.269h86.835v43.418h-64.512v16.589c-8.294-6.861-16.794-13.517-25.498-19.968-4.608 7.578-10.24 15.36-16.896 23.45 48.435 32.87 84.992 71.475 109.568 115.814h28.262l-4.506-9.626c24.371-41.37 60.826-73.523 109.568-96.461-5.939-10.957-10.957-20.378-15.053-28.467zM798.72 271.565c-8.704 0-16.179-3.174-22.426-9.626-6.349-6.451-10.342-14.848-11.878-25.19h64.102c-0.102 11.059-2.662 19.661-7.885 25.702s-12.493 9.114-21.914 9.114z" />
<glyph unicode="&#xe908;" glyph-name="e908" d="M936.55-53.76l-926.31 926.31 77.21 77.21 926.31-926.31-77.21-77.21zM1013.76 872.55l-926.31-926.31-77.21 77.21 926.31 926.31 77.21-77.21z" />
<glyph unicode="&#xe909;" glyph-name="e909" d="M664.064 949.76h-304.128c-33.587 0-60.826-27.238-60.826-60.826v-121.651h-212.89c-33.587 0-60.826-27.238-60.826-60.826s27.238-60.826 60.826-60.826h851.456c33.587 0 60.826 27.238 60.826 60.826s-27.238 60.826-60.826 60.826h-212.787v121.651c0 33.587-27.238 60.826-60.826 60.826zM633.651 767.283h-243.302v91.238h243.302v-91.238zM116.634 554.394v-486.605c0-67.277 54.477-121.651 121.651-121.651h547.328c67.174 0 121.651 54.374 121.651 121.651v486.605h-121.549v-486.605h-121.651v486.605h-91.238v-486.605h-121.651v486.605h-91.238v-486.605h-121.651v486.605h-121.651z" />
<glyph unicode="&#xe90a;" glyph-name="e90a" d="M611.123 215.347l-66.765-65.843v354.509c0 17.613-14.541 31.949-32.358 31.949s-32.358-14.336-32.358-31.949v-354.509l-66.662 65.843c-12.698 12.493-33.075 12.493-45.773 0s-12.698-32.666 0-45.158l115.2-113.869 11.162-9.933c5.222-3.686 11.571-6.042 18.33-6.042s13.21 2.355 18.33 6.042l11.162 9.933 2.765 2.765 112.538 111.104c12.595 12.493 12.595 32.666 0 45.158-12.493 12.493-32.973 12.493-45.568 0v0zM673.485 690.893c-31.642 27.443-70.963 45.773-118.989 51.302l-0.205-0.41c-2.253 0.717-4.608 1.434-7.168 1.434-13.517 0-24.269-10.65-24.166-23.757 0.102-10.138 6.656-18.637 15.872-22.221l-0.205-0.41c2.048-0.102 3.891-0.512 6.042-0.717 0.922-0.102 1.741-0.512 2.765-0.512 0.205 0 0.41 0.102 0.717 0.102 39.424-3.891 68.608-17.306 93.491-41.062 0 0 12.186-8.704 20.173-8.704 13.517 0 24.269 10.65 24.166 23.757 0.102 9.114-12.493 21.197-12.493 21.197v0zM856.678 604.979c-38.195 144.179-170.598 250.675-328.499 250.675-155.034 0-285.491-102.502-326.451-242.79-108.339-16.589-191.488-109.056-191.488-220.774 0-112.742 84.48-205.107 194.253-220.672v0h48.538c17.818 0 32.358 14.336 32.358 31.949s-14.541 31.949-32.358 31.949h-48.538c-73.933 14.848-129.536 79.36-129.536 156.672 0 88.371 72.397 159.846 161.894 159.846 6.144 0 12.186-0.41 18.125-1.024 15.667 135.475 131.891 240.845 273.203 240.845 141.21 0 257.434-105.165 273.203-240.538 82.739-7.066 147.661-75.674 147.661-159.13 0-77.414-55.603-141.824-129.536-156.672v0h-48.538c-17.818 0-32.358-14.336-32.358-31.949s14.541-31.949 32.358-31.949h64.717c101.786 22.016 178.074 113.562 178.074 220.672 0 99.533-65.946 184.013-157.082 212.89v0zM738.202 599.245c0 0-0.205 1.638-0.614 2.355-0.307 0.717-0.614 1.331-0.922 1.946-2.253 5.018-4.813 9.728-7.373 14.541 0 0-13.21 18.534-24.986 18.534-13.414 0-24.166-10.65-24.166-23.757 0-3.789 1.946-10.547 1.946-10.547 3.482-5.939 7.066-11.776 10.547-18.227 0-0.102 0.102-0.102 0.102-0.205 1.331-2.458 4.813-6.861 4.813-6.861 4.403-4.608 10.752-7.475 17.613-7.475 13.517 0 24.269 10.65 24.166 23.757 0.205 2.048-0.512 3.994-1.126 5.939v0z" />
<glyph unicode="&#xe90b;" glyph-name="e90b" d="M459.571 943.718c106.394 11.059 216.474-12.186 308.736-67.379 101.069-59.597 180.122-155.546 218.214-266.342 29.286-83.866 35.021-175.821 16.794-262.963-20.89-102.4-75.776-197.018-153.19-267.059-83.866-76.493-194.662-122.88-307.814-129.331-92.979-6.042-187.597 14.848-269.414 59.29-109.363 58.573-195.277 159.232-235.622 276.787-33.075 94.925-35.738 199.987-8.397 296.653 26.317 94.31 82.125 180.531 157.594 244.122 76.39 65.024 173.056 106.394 273.101 116.224zM656.486 650.035c-66.355-114.176-132.71-228.352-199.066-342.426-38.4 34.304-75.776 69.325-113.869 104.038-11.162 10.752-30.31 11.469-42.086 0.717-14.131-11.469-14.131-35.021-0.307-46.49 47.514-43.827 95.334-87.245 142.746-130.662 14.131-14.438 41.779-9.728 48.845 9.421 73.523 124.211 145.203 249.549 218.010 374.477 5.427 8.397 7.373 19.149 3.686 28.672-5.018 14.848-22.528 23.859-37.683 19.149-9.114-2.048-16.179-8.806-20.275-16.896z" />
<glyph unicode="&#xe90c;" glyph-name="e90c" d="M709.734 820.531l-399.77-399.667 174.899-174.899 399.667 399.667-174.797 174.899zM759.706 870.502l174.899-174.899 64.614 64.614c19.558 19.558 19.558 51.098 0 70.656l-104.346 104.243c-19.558 19.558-51.098 19.558-70.656 0l-64.512-64.614zM260.096 370.893l-49.971-224.87 224.768 50.074-174.797 174.797zM859.546 445.85v-399.667h-749.363v749.363h399.667l99.942 99.942h-549.581c-24.986 0-48.026-24.986-48.026-49.971h-1.946v-844.493c0-30.106 28.467-54.784 58.675-54.784h835.891c30.208 0 54.784 24.371 54.784 54.784v544.768l-100.045-99.942z" />
<glyph unicode="&#xe90d;" glyph-name="e90d" d="M158.003 803.43c76.186 76.186 174.285 125.542 282.829 141.107 132.608 19.046 264.704-14.746 371.917-95.027 107.213-80.384 176.845-197.632 195.891-330.24 39.322-273.818-151.552-528.589-425.267-567.91-114.79-16.486-232.448 7.578-331.469 67.686-16.896 10.24-22.323 32.358-12.083 49.254 10.342 16.794 32.256 22.323 49.254 12.083 84.787-51.507 185.651-72.090 284.058-57.958 234.598 33.69 398.131 252.006 364.442 486.81-16.282 113.664-75.981 214.221-167.936 283.034-91.75 68.71-205.005 97.587-318.669 81.203-234.803-33.69-398.336-252.006-364.646-486.707 8.806-61.44 30.208-118.886 63.488-170.598 10.65-16.691 5.837-38.912-10.752-49.562-16.691-10.752-38.81-5.939-49.562 10.752-38.912 60.518-63.795 127.488-74.24 199.27-18.842 132.506 14.848 264.704 95.334 371.917 14.541 19.661 30.413 37.888 47.411 54.886v0zM515.891 112.333c-29.696 0-53.76 24.064-53.76 53.76s24.064 53.76 53.76 53.76c29.696 0 53.76-24.064 53.76-53.76s-24.064-53.76-53.76-53.76v0zM615.117 478.72c-31.13-31.13-63.386-63.283-63.386-92.262v-60.621c0-19.763-16.077-35.84-35.84-35.84s-35.84 16.077-35.84 35.84v60.621c0 58.573 44.749 103.424 84.378 142.95 28.979 28.979 58.982 58.982 58.982 82.842 0 59.699-48.23 108.339-107.52 108.339-60.314 0-107.52-46.49-107.52-105.882 0-19.763-16.077-35.84-35.84-35.84s-35.84 16.077-35.84 35.84c0 97.894 80.384 177.562 179.2 177.562s179.2-80.691 179.2-180.019c0-53.555-40.653-94.208-79.974-133.53v0z" />
<glyph unicode="&#xe90e;" glyph-name="e90e" d="M932.557 371.814c0.717 2.97 1.536 5.837 2.253 8.806 27.136 3.277 53.76 6.554 78.95 9.626 0 38.912 0 76.902 0 115.302-25.805 3.174-52.429 6.349-78.131 9.523-5.427 17.613-9.626 34.816-15.974 51.2-6.451 16.691-14.746 32.563-22.426 48.742-3.584 7.475-11.162 14.95-10.445 21.811 0.717 7.066 9.216 13.414 14.438 20.070 11.162 14.336 22.323 28.57 33.485 43.008l-81.101 80.896c-2.765-2.048-5.222-3.686-7.578-5.632-16.794-13.107-33.587-26.214-50.176-39.526-4.506-3.584-7.68-4.403-13.005-0.819-9.216 6.246-19.251 11.469-29.184 16.589-26.726 13.824-55.091 23.142-84.89 29.389-3.277 26.931-6.451 53.555-9.626 79.667-38.707-0.102-76.8-0.205-115.302-0.205-2.765-23.245-5.939-47.411-8.397-71.68-0.614-6.042-2.867-8.397-8.806-9.626-33.382-7.27-64.819-19.558-94.413-36.557-6.451-3.686-13.414-10.24-19.558-9.626-6.349 0.614-12.083 8.294-18.022 12.902-14.95 11.674-29.901 23.347-44.646 34.918l-81.306-81.306c16.794-21.402 33.178-42.291 49.664-63.488-15.77-24.781-29.082-50.483-38.298-79.053 3.994-0.307 6.963-0.614 9.933-0.819 33.28-1.638 66.662-2.97 99.942-4.915 6.042-0.307 8.704 1.741 11.469 6.861 17.51 32.358 41.677 58.88 72.192 79.462 101.171 67.994 236.646 45.261 310.272-51.814 75.469-99.533 56.422-243.302-42.189-318.464-15.974-12.186-32.973-22.016-50.483-29.491-107.315-45.978-234.906-4.301-292.557 105.267-2.662 5.018-5.222 6.656-10.957 5.939-33.587-4.71-67.174-9.011-100.864-13.414-1.741-0.205-3.482-0.819-7.168-1.843 12.698-25.395 24.883-49.869 37.478-75.162-13.824-17.715-28.262-36.659-43.418-54.989-4.813-5.837-4.506-9.216 0.819-14.336 20.173-19.456 39.731-39.526 59.597-59.392l14.848-14.848c2.56 1.741 4.506 2.867 6.246 4.198 15.872 12.39 32.154 24.474 47.411 37.581 7.373 6.349 12.493 7.475 21.402 1.741 27.238-17.613 56.934-29.901 88.269-38.298 7.27-1.946 17.101-1.843 20.89-6.656 4.198-5.222 2.97-14.95 3.891-22.733 2.355-18.842 4.506-37.683 6.656-54.784 39.014-0.102 77.005-0.205 115.405-0.307 2.867 23.45 5.939 47.616 8.499 71.782 0.614 5.734 2.56 7.987 8.192 9.216 38.707 8.397 74.752 23.347 107.93 44.851 1.638 1.024 3.072 1.741 4.403 1.946l64.717-49.459 82.125 82.125c-15.872 19.968-31.846 39.834-47.206 60.109-1.536 2.048-0.717 7.373 0.922 10.035 20.378 32.768 35.226 67.891 43.827 105.677zM495.309 397.619c5.632 0.102 8.806-0.922 11.366-6.758 3.379-7.475 7.168-14.541 11.571-20.992 17.613-26.624 43.11-45.363 71.578-54.784 37.069-12.186 79.258-8.499 116.326 14.336 13.005 7.987 24.883 17.51 34.406 31.027-4.71 0.922-7.885 1.536-11.162 2.048-33.69 5.53-67.482 11.059-101.171 16.691-24.064 3.994-36.454 21.197-32.666 45.056 2.97 18.227 5.939 36.454 9.114 54.682 4.198 24.474 21.299 36.762 45.773 32.768 34.304-5.632 68.608-11.264 102.81-16.998 2.867-0.512 5.837-0.819 9.626-1.434-7.27 20.89-18.432 37.888-33.28 52.122-66.15 63.59-171.827 48.026-217.088-31.846-2.56-4.608-5.325-5.837-10.445-5.734-142.643 3.379-285.286 6.349-427.93 9.83-15.053 0.41-29.594-0.307-43.008-7.987l-13.107-13.107c-2.355-7.373-6.246-14.541-6.861-22.118-1.126-14.438-1.126-29.184 0-43.622 1.126-14.336 8.499-25.702 20.378-34.202 11.776-8.397 24.781-9.114 38.502-8.806 137.421 3.174 274.944 6.144 412.365 9.318 4.301 0.307 8.602 0.41 12.902 0.512zM105.165 431.718c-12.083-12.39-31.334-12.595-43.725-0.512-12.288 12.083-12.288 31.846-0.102 43.725 12.083 11.776 31.13 11.776 43.11-0.102 12.083-11.981 12.39-31.13 0.717-43.11z" />
<glyph unicode="&#xe90f;" glyph-name="e90f" d="M652.493 829.338h-82.33c1.229 6.451 2.048 13.21 2.048 20.070 0 55.398-44.954 100.352-100.352 100.352s-100.352-44.954-100.352-100.352c0-6.861 0.819-13.619 2.048-20.070h-82.33v-120.422h361.267v120.422zM495.923 829.338h-52.941c-2.458 5.222-3.994 11.264-3.994 17.613 0 18.842 13.619 34.099 30.515 34.099s30.925-15.258 30.925-34.099c-0.102-6.349-1.638-12.39-4.506-17.613zM411.648 628.634h280.986v-80.282h-280.986v80.282zM411.648 387.789h176.64c31.334 18.842 66.662 32.154 104.346 37.376v42.906h-280.986v-80.282zM772.915 746.598l4.403-322.355c26.522-4.403 51.814-12.083 75.059-23.245l-0.41 370.893c0 37.683-28.877 57.446-64.205 57.446l-92.774-7.578 5.222-62.669 72.704-12.493zM168.346 59.085l-2.458 695.194 82.739-2.765v75.366l-99.123 2.458c-34.918 0-58.982-18.842-58.982-57.037l0.819-721.715c0-38.093 24.474-64.205 59.392-64.205h351.232c-15.258 22.118-27.648 46.592-36.147 72.704h-297.472zM251.085 307.507h80.282v-80.282h-80.282v80.282zM251.085 628.634h80.282v-80.282h-80.282v80.282zM411.648 227.226h51.814c8.806 28.877 21.709 56.218 38.502 80.282h-90.317v-80.282zM251.085 468.070h80.282v-80.282h-80.282v80.282zM732.774 347.648c-110.797 0-200.704-89.907-200.704-200.704s89.907-200.704 200.704-200.704c110.797 0 200.704 89.907 200.704 200.704s-89.907 200.704-200.704 200.704zM699.494 41.779l-107.213 106.394 46.592 48.128 59.802-62.259 111.206 115.61 54.579-56.218-164.966-151.654z" />
<glyph unicode="&#xe910;" glyph-name="e910" d="M248.934 246.886v-50.074h126.157c-0.614 8.294-0.922 16.589-0.922 25.088 0 8.397 0.307 16.794 0.922 25.088h-126.157zM443.187 422.195h-194.253v-50.074h161.997c9.216 17.715 20.070 34.509 32.256 50.074zM549.581 948.326h-150.323v-50.074h150.323v50.074zM464.896-3.686h-341.197c-13.824 0-25.088 11.264-25.088 25.088v851.763c0 13.824 11.264 25.088 25.088 25.088h120.115c15.872-5.427 29.798-19.046 30.208-50.074 0.512-54.784 75.162-50.074 75.162-50.074h250.47c0 0 70.144 0 75.162 57.344 2.253 25.907 15.155 37.786 29.696 42.803h120.627c13.824 0 25.088-11.264 25.088-25.088v-362.394c17.715-9.216 34.509-20.070 50.074-32.256v419.635c0 27.648-22.426 50.074-50.074 50.074h-150.323c0 0-75.162 14.848-75.162-50.074 0-34.406-21.094-46.387-40.96-50.074h-211.046c-21.606 2.662-48.538 13.414-48.538 50.074 0 61.338-75.162 50.074-75.162 50.074v0h-150.426c-27.648 0-50.074-22.426-50.074-50.074v-901.837c0-27.648 22.426-50.074 50.074-50.074h427.622c-22.426 14.131-43.008 31.027-61.338 50.074zM699.904 597.606h-450.97v-50.074h450.97v50.074zM699.904 497.357c-152.166 0-275.558-123.392-275.558-275.558s123.392-275.558 275.558-275.558 275.558 123.392 275.558 275.558c0 152.166-123.392 275.558-275.558 275.558zM850.227 196.71h-175.411v175.411h50.074v-125.235h125.235v-50.176z" />
<glyph unicode="&#xe911;" glyph-name="e911" d="M456.499 322.56h-69.939v-41.779h53.965c4.301 14.438 9.626 28.365 15.974 41.779v0zM386.56 113.459h53.965c-3.994 13.517-7.066 27.546-9.114 41.779h-44.749v-41.779h-0.102zM177.459 71.68h125.44v125.44h-125.44v-125.44zM219.341 155.341h41.779v-41.779h-41.779v41.779zM302.899 531.661h-125.44v-125.44h125.44v125.44zM261.12 448h-41.779v41.779h41.779v-41.779zM302.899 364.339h-125.44v-125.44h125.44v125.44zM261.12 280.781h-41.779v41.779h41.779v-41.779zM679.219 486.81v2.97h-292.659v-41.779h183.706c32.666 19.661 69.53 33.178 108.954 38.81v0zM704.512 197.12c0-14.131 11.469-25.6 25.6-25.6s25.6 11.469 25.6 25.6-11.469 25.6-25.6 25.6c-14.234 0-25.6-11.469-25.6-25.6zM804.659 433.766v202.24c0 57.958-46.899 104.653-104.653 104.653h-22.835c-9.728 47.616-51.917 83.661-102.502 83.661h-20.89c0 69.325-56.115 125.44-125.44 125.44s-125.44-56.115-125.44-125.44h-20.89c-50.688 0-92.774-35.942-102.502-83.661h-22.835c-57.856 0-104.653-46.899-104.653-104.653v-585.114c0-57.958 46.899-104.653 104.653-104.653h413.491c-19.558 11.776-37.786 25.907-53.965 41.779h-359.731c-34.611 0-62.669 28.058-62.669 62.771v585.318c0 34.714 27.853 62.771 62.669 62.771h20.992v-83.661h501.76v83.661h20.992c34.611 0 62.669-28.058 62.669-62.771v-191.59c-13.619 2.253-27.546 3.482-41.779 3.482-138.547 0-250.88-112.333-250.88-250.88s112.333-250.88 250.88-250.88c138.547 0 250.88 112.333 250.88 250.88 0 109.261-69.837 202.138-167.322 236.646zM428.339 761.549c-34.611 0-62.669 28.058-62.669 62.771 0 34.611 28.058 62.669 62.669 62.669s62.669-28.058 62.669-62.669c0.102-34.611-27.955-62.771-62.669-62.771zM903.68 158.106h-34.304c-3.174-11.264-7.578-22.016-13.21-32.051l24.166-24.166c4.403-4.403 4.403-11.674 0-16.077l-39.014-39.014c-2.15-2.15-5.018-3.277-7.987-3.277-2.867 0-5.837 1.126-7.987 3.277l-24.166 24.166c-10.035-5.632-20.787-10.035-32.051-13.21v-34.304c0-6.246-5.12-11.366-11.366-11.366h-55.296c-6.246 0-11.366 5.12-11.366 11.366v34.304c-11.264 3.174-22.016 7.578-32.051 13.21l-24.166-24.269c-2.15-2.15-5.12-3.277-7.987-3.277s-5.837 1.126-7.987 3.277l-39.014 39.014c-4.403 4.403-4.403 11.674 0 16.077l24.166 24.166c-5.632 10.035-10.035 20.787-13.21 32.051h-34.304c-6.246 0-11.366 5.12-11.366 11.366v55.194c0 6.246 5.12 11.366 11.366 11.366h34.304c3.174 11.264 7.578 22.016 13.21 32.051l-24.269 24.371c-4.403 4.403-4.403 11.674 0 16.077l39.014 39.014c2.15 2.15 5.12 3.277 7.987 3.277s5.837-1.126 7.987-3.277l24.166-24.064c10.035 5.632 20.787 10.035 32.051 13.21v34.202c0 6.246 5.12 11.366 11.366 11.366h55.194c6.246 0 11.366-5.12 11.366-11.366v-34.202c11.264-3.174 22.016-7.578 32.051-13.21l24.166 24.166c2.15 2.15 5.018 3.277 7.987 3.277 2.867 0 5.837-1.126 7.987-3.277l39.014-39.014c4.403-4.403 4.403-11.674 0-16.077l-24.166-24.166c5.632-10.035 10.035-20.787 13.21-32.051h34.304c6.246 0 11.366-5.12 11.366-11.469v-55.296c0.205-6.246-4.915-11.366-11.162-11.366zM818.074 246.682l-13.926 24.576-24.576 13.926c-6.963 3.891-14.438 6.963-22.323 9.216l-27.238 7.578-27.238-7.578c-7.987-2.15-15.462-5.325-22.323-9.216l-24.576-13.926-13.926-24.576c-3.891-6.963-6.963-14.438-9.216-22.323l-7.578-27.238 7.578-27.238c2.15-7.987 5.325-15.462 9.216-22.323l13.926-24.576 24.576-13.926c6.963-3.891 14.438-6.963 22.323-9.216l27.238-7.578 27.238 7.578c7.987 2.15 15.462 5.325 22.323 9.216l24.576 13.926 13.926 24.576c3.891 6.963 6.963 14.438 9.216 22.323l7.68 27.238-7.578 27.238c-2.253 7.987-5.325 15.462-9.318 22.323zM730.010 127.693c-38.4 0-69.427 31.13-69.427 69.427 0 38.4 31.13 69.427 69.427 69.427 38.4 0 69.427-31.027 69.427-69.427s-31.13-69.427-69.427-69.427z" />
<glyph unicode="&#xe912;" glyph-name="e912" d="M338.698 923.863c-135.485-20.705-250.071-111.032-300.554-236.851-57.59-143.575-24.453-306.473 84.797-415.334 66.662-66.458 149.484-104.325 244.746-111.821 61.727-5.13 131.348 7.496 187.156 33.526l16.763 7.885-23.276 27.802c-18.534 22.088-24.054 27.607-27.218 26.819-2.171-0.594-12.421-3.942-22.876-7.885-38.656-13.804-80.261-19.528-125.235-16.568-143.176 8.878-262.492 117.146-286.945 260.127-5.519 31.949-4.536 86.774 1.976 115.763 13.804 61.921 41.615 113.009 85.985 157.184 34.908 34.714 73.165 58.767 119.122 74.742 37.468 13.015 55.020 15.78 101.765 15.78 35.297 0 44.37-0.594 61.338-4.342 125.030-27.023 218.706-120.494 245.535-244.746 5.13-24.064 7.096-76.524 3.942-101.765-6.902-51.866-26.624-101.56-57.59-144.753l-11.837-16.374 23.47-25.047c13.015-13.609 24.453-24.852 25.641-24.852 2.959 0 23.859 27.607 36.874 48.517 100.188 161.915 65.874 373.524-80.855 496.384-55.030 46.172-120.893 75.551-192.481 86.006-26.429 3.942-84.408 3.942-110.244-0.195zM385.044 787.589c-10.455-6.513-11.837-9.472-12.82-30.566l-0.983-19.722-15.186-3.553c-30.177-7.096-59.556-27.218-71.188-48.517-14.592-27.013-14.787-63.109-0.195-91.699 6.902-13.414 24.259-31.56 39.045-40.622 6.707-3.942 20.122-10.455 29.778-14.397l17.746-7.096 0.594-59.75 0.399-59.556-7.301 1.382c-18.145 3.348-41.021 14.787-57.979 28.989-16.169 13.609-28.795 13.998-41.411 1.382-13.609-13.609-12.626-26.819 2.959-41.615 20.122-19.528 50.483-35.103 84.214-43.581l18.534-4.731 0.983-22.088 0.983-22.282 7.301-6.707c6.502-5.919 8.673-6.707 17.746-6.707 12.227 0 21.699 4.925 26.225 13.609 1.976 4.137 2.959 11.633 2.959 25.641v19.917l5.519 1.188c15.78 3.348 34.314 9.861 45.752 15.78 40.038 21.105 59.361 58.378 53.248 103.537-5.714 43.776-33.126 72.376-88.545 92.498l-14.991 5.519-0.594 54.231-0.399 54.231 13.21-2.959c7.496-1.577 19.917-6.113 28.006-9.667 9.667-4.536 17.551-6.707 23.47-6.707 7.885 0 9.861 0.983 16.374 7.885 4.342 4.536 8.090 10.65 8.878 14.592 1.382 8.479-1.772 18.934-7.69 24.259-10.455 9.667-42.598 22.282-67.451 26.429l-14.787 2.56v16.763c0 13.21-0.788 18.34-3.748 23.071-7.107 11.622-26.624 16.353-38.656 9.062zM372.224 636.324c0-49.111 0.788-47.729-19.323-34.714-15.974 10.455-22.088 20.705-22.088 37.468 0 7.096 1.188 14.592 2.959 17.951 3.748 7.096 13.609 14.787 23.859 18.534 15.575 5.724 14.592 8.284 14.592-39.24zM444.406 506.757c21.893-10.65 32.338-25.641 32.338-46.541 0-21.105-15.78-38.062-41.81-45.363l-7.496-1.976v50.094c0 32.737 0.788 50.094 1.976 50.094s7.885-2.765 14.991-6.308zM526.643 374.815c-9.267-5.919-15.186-19.528-13.609-30.966 2.365-18.739 10.844-30.566 96.041-134.502 104.52-127.795 94.065-114.186 89.539-117.535-8.878-6.513-33.72-0.983-60.15 13.015-31.355 16.763-35.297 18.34-49.101 18.34-16.957 0.195-26.235-3.154-33.925-11.837-5.325-6.308-6.113-8.284-5.13-15.575 1.188-11.438 4.536-15.974 22.682-31.549 47.135-40.428 117.34-76.124 175.718-89.928 24.852-5.714 77.896-7.096 101.765-2.56 75.93 13.998 140.216 61.338 157.972 115.958 4.536 13.609 5.325 19.722 5.325 38.851 0 24.648-2.959 41.216-11.633 65.075-12.626 35.103-41.615 83.62-64.881 108.268-29.583 31.355-67.451 40.827-110.438 27.802-32.348-10.056-75.53-38.062-110.244-71.987l-17.551-16.957-27.412 27.218c-15.186 14.991-37.868 38.851-50.483 52.849-31.16 34.908-46.346 49.306-58.173 55.224-12.646 6.328-27.238 6.717-36.311 0.799z" />
<glyph unicode="&#xe913;" glyph-name="e913" d="M704.922 448c0-106.701-86.221-192.922-192.922-192.922-106.291 0-192.922 86.221-192.922 192.922s86.63 192.922 192.922 192.922c106.701 0 192.922-86.118 192.922-192.922zM974.95 525.107h-46.080c-21.504 0-43.827 16.896-50.176 36.966l-26.419 64.717c-10.035 18.739-5.939 46.080 9.114 61.133l32.768 32.87c15.053 15.053 15.053 39.731 0 54.682l-54.682 54.784c-15.053 14.643-39.629 14.643-54.682 0l-32.87-32.768c-15.053-15.053-42.496-19.149-61.133-9.114l-64.819 26.419c-20.070 6.349-36.966 28.774-36.966 50.176v46.080c0 21.402-17.306 38.81-38.298 38.81h-77.517c-20.992 0-38.298-17.306-38.298-38.81v-46.080c0-21.402-16.896-43.827-36.966-50.176l-64.717-26.419c-18.739-10.035-46.080-5.939-61.133 9.114l-32.87 32.768c-15.053 14.643-39.731 14.643-54.784 0l-54.682-54.682c-14.643-15.053-14.643-39.629 0-54.682l32.768-32.87c15.053-15.053 19.149-42.394 9.114-61.133l-26.419-64.717c-6.349-20.070-28.774-36.966-50.176-36.966h-46.080c-21.402 0-38.81-17.408-38.81-38.4v-77.517c0-20.992 17.306-38.298 38.81-38.298h46.080c21.402 0 43.827-16.896 50.176-36.966l26.419-64.819c10.035-18.739 5.939-46.49-9.114-61.133l-32.768-32.87c-14.643-15.053-14.643-39.629 0-54.682l54.682-54.784c15.053-15.053 39.731-15.053 54.784 0l32.87 32.768c15.053 15.053 42.394 19.149 61.133 9.114l64.717-26.419c20.070-6.349 36.966-29.184 36.966-50.176v-46.080c0-21.402 17.306-38.707 38.298-38.707h77.517c20.992 0 38.298 17.306 38.298 38.707v46.080c0 20.992 16.896 43.827 36.966 50.176l64.819 26.419c18.739 10.035 46.49 5.939 61.133-9.114l32.87-32.768c15.053-15.053 39.629-15.053 54.682 0l54.784 54.784c15.053 15.053 15.053 39.629 0 54.682l-32.768 32.87c-15.053 14.643-19.149 42.496-9.114 61.133l26.419 64.819c6.349 20.070 29.184 36.966 50.176 36.966h46.080c21.402 0 38.707 17.306 38.707 38.298v77.517c0 20.992-17.408 38.298-38.81 38.298z" />
<glyph unicode="&#xe914;" glyph-name="e914" d="M980.582 566.272l-77.722-45.261c4.301-23.757 7.27-48.026 7.27-73.011s-2.867-49.357-7.27-73.011l77.722-45.261c31.744-18.432 42.598-59.392 24.269-91.341l-66.355-115.917c-18.33-31.949-58.88-42.906-90.624-24.474l-78.438 45.67c-36.659-31.437-78.336-57.242-124.723-73.728v-56.73c0-36.966-29.696-66.867-66.355-66.867h-132.71c-36.659 0-66.355 30.003-66.355 66.867v56.832c-46.285 16.486-87.962 42.291-124.723 73.728l-78.438-45.773c-31.744-18.432-72.294-7.475-90.624 24.474l-66.355 115.917c-18.33 32.051-7.475 72.909 24.269 91.341l77.722 45.261c-4.301 23.757-7.27 48.026-7.27 73.011 0 25.088 2.867 49.357 7.27 73.011l-77.722 45.261c-31.744 18.432-42.598 59.392-24.269 91.341l66.355 115.814c18.33 32.051 58.88 42.906 90.624 24.474l78.438-45.67c36.659 31.437 78.336 57.242 124.723 73.728v56.934c0 36.966 29.696 66.867 66.355 66.867h132.71c36.659 0 66.355-30.003 66.355-66.867v-56.73c46.285-16.486 87.962-42.291 124.723-73.728l78.438 45.67c31.744 18.432 72.294 7.578 90.624-24.474l66.355-115.917c18.33-32.051 7.475-73.011-24.269-91.443v0zM930.816 653.21l-33.178 57.958c-9.216 15.974-29.491 21.504-45.363 12.288l-92.16-53.658c-46.797 53.248-109.978 91.341-181.76 106.086v73.523c0 18.534-14.848 33.485-33.178 33.485h-66.355c-18.33 0-33.178-14.95-33.178-33.485v-73.626c-71.782-14.746-134.963-52.838-181.76-106.086l-92.16 53.658c-15.872 9.216-36.147 3.789-45.363-12.288l-33.178-57.856c-9.216-15.974-3.686-36.454 12.186-45.67l92.57-53.862c-11.059-33.28-17.613-68.608-17.613-105.677s6.554-72.397 17.613-105.574l-92.57-53.862c-15.872-9.216-21.299-29.696-12.186-45.67l33.178-57.958c9.216-15.974 29.389-21.504 45.363-12.288l92.16 53.658c46.797-53.248 109.978-91.341 181.76-106.086v-73.626c0-18.432 14.848-33.485 33.178-33.485h66.355c18.33 0 33.178 14.95 33.178 33.485v73.626c71.782 14.643 134.963 52.838 181.76 106.086l92.16-53.658c15.872-9.216 36.147-3.789 45.363 12.288l33.178 57.958c9.216 15.974 3.686 36.454-12.186 45.67l-92.57 53.862c11.059 33.28 17.613 68.608 17.613 105.574 0 37.069-6.554 72.397-17.613 105.677l92.57 53.862c15.872 9.216 21.402 29.594 12.186 45.67zM512 280.781c-91.648 0-165.888 74.854-165.888 167.219s74.24 167.219 165.888 167.219 165.888-74.854 165.888-167.219c0-92.365-74.24-167.219-165.888-167.219zM512 548.352c-54.989 0-99.533-44.954-99.533-100.352s44.544-100.352 99.533-100.352 99.533 44.954 99.533 100.352-44.544 100.352-99.533 100.352z" />
<glyph unicode="&#xe915;" glyph-name="e915" d="M974.95 918.016c-23.347 23.245-56.115 38.298-91.546 38.298h-679.936c-34.918 0-67.789-15.053-91.546-38.298-23.347-23.654-38.298-56.115-38.298-92.16v-39.936h-24.576c-21.094 0-38.81-17.818-38.81-39.117 0-21.606 17.715-38.912 38.81-38.912h24.474v-121.242h-24.474c-21.094 0-38.81-17.818-38.81-39.117 0-21.709 17.715-39.117 38.81-39.117h24.474v-120.73h-24.474c-21.094 0-38.81-18.022-38.81-39.424 0-21.606 17.715-39.117 38.81-39.117h24.474v-120.73h-24.474c-21.094 0-38.81-18.022-38.81-39.629 0-21.402 17.715-38.912 38.81-38.912h24.474v-39.936c0-35.84 14.95-68.301 38.298-91.546 23.859-24.166 56.627-38.605 91.546-38.605h679.936c36.045 0 68.301 14.746 91.546 38.605 24.371 23.245 38.81 55.808 38.81 91.546v755.917c0.102 35.533-14.336 68.506-38.707 92.16v0zM934.912 69.837v0c0-14.438-5.53-27.136-14.95-36.659-10.035-9.421-22.733-14.95-36.659-14.95h-679.936c-13.926 0-27.136 5.53-36.147 14.95-9.933 9.421-16.077 22.221-16.077 36.659v39.936h24.371c21.606 0 39.424 17.51 39.424 38.912 0 21.606-17.818 39.629-39.424 39.629h-24.371v120.832h24.371c21.606 0 39.424 17.51 39.424 39.117 0 21.402-17.818 39.424-39.424 39.424h-24.371v120.73h24.371c21.606 0 39.424 17.51 39.424 39.117 0 21.402-17.818 39.117-39.424 39.117h-24.371v121.242h24.371c21.606 0 39.424 17.203 39.424 38.912 0 21.402-17.818 39.117-39.424 39.117h-24.371v39.936c0 14.438 6.144 27.443 16.077 36.659 8.909 9.728 22.221 15.77 36.147 15.77h679.936c13.926 0 27.238-6.144 36.659-15.77 9.421-9.114 14.95-22.221 14.95-36.659v-756.019zM842.24 317.952v0l-1.638 1.946-103.219 79.974v-0.307l-1.638 0.819c-7.27 5.53-14.438 9.216-22.733 11.674l-2.253 0.614c-23.245 6.349-49.357 0.512-67.686-15.872l-1.126-1.126c-3.891-2.765-6.656-6.144-8.806-9.216-0.512-1.434-2.15-3.072-2.765-4.198l-22.221-30.31c-1.638 0.307-4.403 1.126-6.656 2.765-46.080 32.461-87.142 73.523-119.296 120.218-1.638 2.765-2.765 4.71-3.891 6.349 17.203 12.186 40.038 25.498 51.61 43.827 17.203 25.293 15.053 59.085-1.638 82.944l-1.638 2.765-80.179 103.219-2.765 1.946c-6.656 6.656-12.186 12.186-19.456 16.896l-2.253 1.126c-37.786 21.914-77.107 2.56-99.942-28.262-13.312-16.896-22.221-35.84-28.365-54.682-10.547-30.31-14.438-61.645-13.926-92.467 1.126-32.768 7.27-65.434 17.203-97.69 11.059-32.461 26.112-63.59 44.954-92.979 19.456-30.003 42.189-58.88 67.686-84.89v0c25.6-24.986 54.374-48.026 84.89-67.789 28.877-18.33 60.518-33.587 92.672-43.827 32.256-11.162 64.922-17.203 97.178-18.022 30.515-0.614 61.030 3.584 90.522 13.107l2.253 0.819c24.883 7.782 48.845 21.094 68.301 39.117 27.75 25.805 31.027 71.066 7.168 100.762-3.072 4.096-5.939 7.168-10.342 10.752v0zM762.368 211.968v0l-1.638-0.512c-24.371-8.294-49.357-11.981-74.342-11.366-28.262 0.512-56.627 6.144-84.378 15.258-27.75 9.421-55.501 23.245-82.125 39.936-27.75 17.51-53.35 37.99-77.21 61.030-22.733 23.552-43.315 49.664-60.518 76.902-17.203 26.624-31.027 54.374-39.936 82.432-9.421 27.75-14.438 56.013-14.95 83.763-1.126 25.805 2.253 52.224 10.547 76.595 8.294 24.166 31.642 72.704 62.771 56.934 2.253-1.331 5.53-4.915 9.421-8.602l78.848-102.093 1.126-0.819c8.397-11.366 5.53-29.389-6.144-37.99l-1.126-1.126-1.638-1.434-37.786-27.136c-3.277-1.946-6.144-5.837-7.68-9.114-1.741-5.53-4.506-13.312-3.891-23.552v-0.614c0.512-8.602 3.891-20.48 11.674-32.154 36.147-51.405 79.974-95.437 131.584-131.891 16.179-11.059 36.659-15.258 55.501-7.168 4.403 2.253 7.168 4.71 9.933 7.782l28.877 39.936 0.512 1.126c1.126 0.819 2.765 1.946 3.891 3.277l0.512 0.614c8.397 7.168 21.094 8.294 30.618 3.277 1.638-0.512 3.277-2.253 3.891-2.765l0.512-0.512 102.093-79.36 1.126-0.512h0.512c35.942-30.72-25.6-62.669-50.586-70.144v0z" />
<glyph unicode="&#xe916;" glyph-name="e916" d="M319.795 106.086c-10.957 26.010-18.534 52.941-22.528 80.691h-69.837c-9.728 0-17.51 7.885-17.51 17.51v7.066c0 9.728 7.885 17.51 17.51 17.51h66.458c0 1.946-0.102 3.994-0.102 5.939 0 44.646 8.704 87.962 26.010 128.717 3.584 8.397 7.475 16.589 11.674 24.678h-104.038c-9.728 0-17.51 7.885-17.51 17.51v7.066c0 9.728 7.885 17.51 17.51 17.51h130.355c9.933 13.517 20.89 26.317 32.87 38.298 30.413 30.413 65.741 54.17 105.165 70.861 40.858 17.306 84.173 26.010 128.819 26.010s87.962-8.704 128.717-26.010c13.926-5.939 27.341-12.698 40.243-20.378v214.733c0 62.362-33.997 112.845-75.878 112.845h-72.909v43.418c0 32.87-26.726 59.699-59.699 59.699h-5.837c-32.87 0-59.699-26.726-59.699-59.699v-43.52h-124.416v43.52c0 32.87-26.726 59.699-59.699 59.699h-5.837c-32.87 0-59.699-26.726-59.699-59.699v-43.52h-83.354c-41.882 0-75.878-50.483-75.878-112.845v-648.806c0-62.362 33.997-112.845 75.878-112.845h236.954c-11.571 8.806-22.528 18.432-32.87 28.877-30.31 30.413-54.17 65.843-70.861 105.165zM561.766 846.643v43.418c0 9.728 7.885 17.51 17.51 17.51h5.837c9.728 0 17.51-7.885 17.51-17.51v-128.512c0-4.198-1.536-8.090-3.994-11.162-0.717-0.819-1.536-1.638-2.355-2.355s-1.843-1.331-2.765-1.843c-2.458-1.331-5.325-2.15-8.397-2.15h-5.837c-3.072 0-5.837 0.717-8.397 2.15-1.024 0.512-1.946 1.126-2.765 1.843s-1.638 1.536-2.355 2.355c-0.307 0.41-0.717 0.922-1.024 1.331-0.614 0.922-1.126 1.946-1.638 2.97-0.205 0.512-0.41 1.024-0.614 1.638-0.307 1.126-0.614 2.253-0.717 3.379-0.102 0.614-0.102 1.229-0.102 1.843l0.102 85.094zM312.115 846.643v43.418c0 9.728 7.885 17.51 17.51 17.51h5.837c9.728 0 17.51-7.885 17.51-17.51v-128.512c0-9.728-7.885-17.51-17.51-17.51h-5.837c-9.728 0-17.51 7.885-17.51 17.51v85.094zM209.92 614.4c0 9.728 7.885 17.51 17.51 17.51h449.536c9.728 0 17.51-7.885 17.51-17.51v-7.066c0-9.728-7.885-17.51-17.51-17.51h-449.536c-9.728 0-17.51 7.885-17.51 17.51v7.066zM828.621 438.989c-54.477 54.477-126.976 84.582-204.083 84.582s-149.606-30.003-204.083-84.582c-54.477-54.477-84.582-126.976-84.582-204.083s30.003-149.606 84.582-204.083c54.477-54.477 126.976-84.582 204.083-84.582s149.606 30.003 204.083 84.582c54.477 54.477 84.582 126.976 84.582 204.083s-30.003 149.606-84.582 204.083zM797.696 213.606h-174.080c-11.674 0-21.094 9.421-21.094 21.094v147.456c0 11.674 9.421 21.094 21.094 21.094h0.512c11.674 0 21.094-9.421 21.094-21.094v-125.952h152.576c11.674 0 21.094-9.421 21.094-21.094v-0.512c-0.102-11.571-9.523-20.992-21.197-20.992z" />
<glyph unicode="&#xe917;" glyph-name="e917" d="M332.083 898.048c-0.614 0.614-1.024 1.229-1.638 1.843-66.458 66.56-174.285 66.56-240.845 0-65.126-65.126-66.355-169.677-3.891-236.544 54.579 102.298 141.107 184.934 246.374 234.701v0zM938.394 663.347c62.362 66.765 61.235 171.418-3.891 236.544-66.458 66.56-174.285 66.56-240.845 0-0.614-0.614-1.024-1.229-1.638-1.843 105.165-49.766 191.693-132.403 246.374-234.701zM764.314 367.309h-252.723c-9.523 0-17.818 4.403-23.552 11.162-4.608 5.427-7.475 12.288-7.475 19.866v0.307c0 0.102 0 0.102 0 0.205s0 0.102 0 0.205v299.418c0 17.203 14.131 31.027 31.539 31.027s31.539-13.926 31.539-31.027v-268.083h220.774c17.203 0 31.13-14.131 31.027-31.437-0.102-17.51-14.029-31.642-31.13-31.642zM770.458 76.698c110.387 80.077 182.272 210.125 182.272 356.966 0 243.405-197.325 440.73-440.73 440.73s-440.73-197.325-440.73-440.73c0-146.842 71.885-276.89 182.374-356.966l-76.698-76.698c-12.288-12.288-12.288-32.256 0-44.544 5.939-5.939 13.824-9.216 22.221-9.216s16.282 3.277 22.323 9.216l87.142 87.142c60.826-31.744 130.048-49.766 203.366-49.766s142.541 18.022 203.366 49.766l87.142-87.142c5.939-5.939 13.824-9.216 22.323-9.216 8.397 0 16.282 3.277 22.221 9.216 12.288 12.288 12.288 32.256 0 44.544l-76.595 76.698zM134.246 433.664c0 208.589 169.165 377.754 377.754 377.754s377.754-169.165 377.754-377.754c0-208.691-169.062-377.856-377.754-377.856s-377.754 169.165-377.754 377.856v0z" />
<glyph unicode="&#xe918;" glyph-name="e918" d="M283.955 83.046h273.715c0 15.77 2.048 31.027 5.734 45.568h-279.45v-45.568zM785.715-53.76v91.238h91.238v91.238h-91.238v91.238h-91.238v-91.238h-91.238v-91.238h91.238v-91.238h91.238zM740.045 265.523h-456.090v-45.568h335.462c32.154 28.365 74.445 45.568 120.627 45.568zM283.955 676.045h456.192v-45.568h-456.192v45.568zM283.955 402.432h456.192v-45.568h-456.192v45.568zM876.954 749.056l-199.066 200.704h-508.723c0 0-22.118 0-22.118-22.323v-958.874c0-22.323 22.118-22.323 22.118-22.323h450.15c-14.746 13.005-27.443 28.467-37.376 45.568h-389.222v912.384h456.192v-136.806c0-45.568 45.568-45.568 45.568-45.568h136.806v-480.666c17.203-9.933 32.563-22.528 45.568-37.376v545.28zM283.955 812.954h273.715v-45.568h-273.715v45.568zM283.955 539.238h456.192v-45.568h-456.192v45.568z" />
<glyph unicode="&#xe919;" glyph-name="e919" d="M512-53.76c-276.685 0-501.76 225.075-501.76 501.76s225.075 501.76 501.76 501.76 501.76-225.075 501.76-501.76c0-165.683-81.715-320.614-218.624-414.31-19.046-13.005-44.954-8.192-57.958 10.854s-8.192 44.954 10.854 57.958c114.176 78.234 182.374 207.36 182.374 345.6 0 230.707-187.699 418.406-418.406 418.406s-418.406-187.802-418.406-418.509 187.699-418.406 418.406-418.406c23.040 0 41.677-18.637 41.677-41.677s-18.637-41.677-41.677-41.677zM748.134 406.323h-472.269c-23.040 0-41.677 18.637-41.677 41.677s18.637 41.677 41.677 41.677h472.269c23.040 0 41.677-18.637 41.677-41.677s-18.637-41.677-41.677-41.677zM512 170.189c-23.040 0-41.677 18.637-41.677 41.677v472.269c0 23.040 18.637 41.677 41.677 41.677s41.677-18.637 41.677-41.677v-472.269c0-23.040-18.637-41.677-41.677-41.677z" />
</font>
</defs>
</svg>
